<svg xmlns="http://www.w3.org/2000/svg" width="20" height="20" viewBox="0 0 20 20">
    <g fill="none" fill-rule="evenodd">
        <g fill="#7F7F7F">
            <g>
                <g>
                    <g>
                        <g>
                            <path d="M12.63 3.225c.308-.3.824-.3 1.133 0 .308.3.308.801 0 1.1l-.06.058-1.93 1.876-2.908 2.826-1.5 1.458.561-.546L9.36 11.39l2.91 2.826 1.5 1.458c.308.3.308.801 0 1.101-.31.3-.825.3-1.133 0l-.06-.057-1.93-1.876-2.909-2.826-1.5-1.458c-.085-.083-.147-.182-.185-.287-.108-.278-.048-.608.18-.83l.059-.057L8.22 7.51l2.908-2.826z" transform="translate(-331 -296) translate(0 44) translate(12 242) translate(0 8) translate(261) rotate(180 39 11)"/>
                        </g>
                    </g>
                </g>
            </g>
        </g>
    </g>
</svg>
