<svg xmlns="http://www.w3.org/2000/svg" width="55" height="55" viewBox="0 0 55 55">
    <g fill="none" fill-rule="evenodd">
        <g fill="#363BB4">
            <g>
                <g>
                    <g>
                        <path d="M27.5 0C42.688 0 55 12.312 55 27.5S42.688 55 27.5 55 0 42.688 0 27.5 12.312 0 27.5 0zm-5.216 30.043c-3.831.833-7.112 3.134-7.112 6.949v1.316c0 1.362 1.138 2.468 2.54 2.468H36.34c1.403 0 2.54-1.106 2.54-2.468v-1.316c0-3.815-2.59-5.868-6.798-6.859-1.656-.39-2.478-.48-4.693-.487h-.362c-2.493 0-2.795-.027-4.742.397zm5.071-16.767c-4.18 0-7.573 3.52-7.573 7.857 0 4.338 3.392 7.857 7.573 7.857 4.181 0 7.573-3.52 7.573-7.857 0-4.338-3.392-7.857-7.573-7.857z" transform="translate(-46 -129) translate(0 44) translate(22 58) translate(24 27)"/>
                    </g>
                </g>
            </g>
        </g>
    </g>
</svg>
