<svg xmlns="http://www.w3.org/2000/svg" width="28" height="28" viewBox="0 0 28 28">
    <g fill="none" fill-rule="evenodd">
        <g fill="#FFF">
            <g>
                <g>
                    <path d="M8.794 17.485c.1.23.056.295.329.576.214.221.806.177.806.177l12.285.032c.949 0 1.807-.59 2.032-1.858l1.247-5.312.107-.824c0-1.01-.715-1.741-1.597-1.741H9.101l-.61-2.887c-.008-.035-.3-.848-1.02-.848H3.459c-.403 0-1.059.17-1.059 1.054 0 .803.709 1.097 1.113 1.097l2.964.006 2.127 9.793.19.735zm13.668-2.061s-.075.459-.26.561c-.108.105-.295.112-.295.112l-11.16-.012L9.619 10.7l13.526-.035s.258.02.317.177c.04.147-.004.39-.004.39l-.073.464-.923 3.727zm-7.96 6.543c0 1.123-.905 2.033-2.02 2.033-1.117 0-2.022-.91-2.022-2.033 0-1.123.905-2.033 2.021-2.033 1.116 0 2.02.91 2.02 2.033zm8.213 0c0 1.123-.905 2.033-2.02 2.033-1.117 0-2.022-.91-2.022-2.033 0-1.123.905-2.033 2.021-2.033 1.116 0 2.021.91 2.021 2.033z" transform="translate(-327 -55) translate(0 44) translate(327 6) translate(0 5)"/>
                </g>
            </g>
        </g>
    </g>
</svg>
