<svg xmlns="http://www.w3.org/2000/svg" width="25" height="24" viewBox="0 0 25 24">
    <g fill="none" fill-rule="evenodd">
        <g fill="#7F7F7F">
            <g>
                <g>
                    <g>
                        <g>
                            <path d="M7.538 14.987c.086.197.048.253.282.494.183.19.69.152.69.152l10.53.027c.814 0 1.55-.506 1.742-1.592l1.069-4.553.092-.707c0-.865-.613-1.492-1.369-1.492H7.8L7.278 4.84c-.007-.03-.257-.727-.875-.727H2.965c-.346 0-.908.145-.908.903 0 .689.608.941.954.941l2.541.005 1.823 8.395.163.63zm11.715-1.766s-.064.393-.222.48c-.093.09-.254.096-.254.096l-9.565-.01-.967-4.615 11.594-.03s.22.017.271.152c.035.126-.003.334-.003.334l-.062.398-.792 3.195zm-6.823 5.608c0 .962-.775 1.742-1.732 1.742s-1.732-.78-1.732-1.742c0-.963.775-1.743 1.732-1.743s1.732.78 1.732 1.743zm7.04 0c0 .962-.776 1.742-1.732 1.742-.957 0-1.733-.78-1.733-1.742 0-.963.776-1.743 1.733-1.743.956 0 1.732.78 1.732 1.743z" transform="translate(-515 -2075) translate(405 1809) translate(12 12) translate(12 52) translate(0 202) translate(86.938)"/>
                        </g>
                    </g>
                </g>
            </g>
        </g>
    </g>
</svg>
