<svg xmlns="http://www.w3.org/2000/svg" width="35" height="35" viewBox="0 0 35 35">
    <defs>
        <linearGradient id="jy2cq1pi5a" x1="50%" x2="50%" y1="0%" y2="100%">
            <stop offset="0%" stop-color="#977DF0"/>
            <stop offset="100%" stop-color="#7461F0"/>
        </linearGradient>
    </defs>
    <g fill="none" fill-rule="evenodd">
        <g fill="url(#jy2cq1pi5a)" transform="translate(-200 -338)">
            <g>
                <g>
                    <g>
                        <g>
                            <g>
                                <path d="M24.5 19c3.59 0 6.5 2.91 6.5 6.5S28.09 32 24.5 32 18 29.09 18 25.5s2.91-6.5 6.5-6.5zM15.944 3c.557 0 1.014.417 1.072.955l.007.116v5.463c0 .553.42 1.007.96 1.066l.118.006h6.55c.558 0 1.015.417 1.073.954l.007.117v5.411C25.328 17.03 24.917 17 24.5 17c-4.694 0-8.5 3.806-8.5 8.5 0 2.08.747 3.986 1.988 5.463H7.158c-1.14 0-2.074-.878-2.153-1.99L5 28.82V5.143c0-1.132.884-2.06 2.003-2.138L7.157 3h8.787zm11.651 19.137l-4.22 4.402-1.97-2.055c-.176-.183-.461-.183-.637 0l-.636.664c-.176.183-.176.48 0 .664l2.925 3.05c.176.184.46.184.636 0l5.175-5.397c.176-.183.176-.48 0-.664l-.636-.664c-.176-.183-.46-.183-.637 0zM11.77 23.722H9.23c-.68 0-1.231.463-1.231 1.035 0 .533.48.972 1.097 1.028l.134.006h2.538c.68 0 1.231-.462 1.231-1.034 0-.572-.55-1.035-1.231-1.035zm3.033-5.172H9.198c-.663 0-1.198.463-1.198 1.035 0 .534.466.972 1.067 1.028l.13.006h5.605c.663 0 1.198-.462 1.198-1.034 0-.572-.535-1.035-1.198-1.035zm6.037-5.172H9.161c-.642 0-1.161.463-1.161 1.035 0 .534.452.972 1.034 1.028l.127.006h11.678c.642 0 1.161-.462 1.161-1.034 0-.572-.519-1.035-1.16-1.035zM19.5 3L25 8.5h-4.557c-.483 0-.882-.364-.937-.833l-.006-.11V3z" transform="translate(0 44) translate(12 242) translate(16 51) translate(159 1) translate(13)"/>
                            </g>
                        </g>
                    </g>
                </g>
            </g>
        </g>
    </g>
</svg>
