<svg xmlns="http://www.w3.org/2000/svg" width="35" height="35" viewBox="0 0 35 35">
    <defs>
        <linearGradient id="f2fh67yo5a" x1="50%" x2="50%" y1=".169%" y2="99.974%">
            <stop offset="0%" stop-color="#82D453"/>
            <stop offset="99.974%" stop-color="#22A829"/>
        </linearGradient>
    </defs>
    <g fill="none" fill-rule="evenodd">
        <g fill="url(#f2fh67yo5a)" transform="translate(-219 -821)">
            <g>
                <g>
                    <g>
                        <g>
                            <path d="M18 2c8.284 0 15 6.793 15 15.173 0 6.622-4.194 12.253-10.041 14.324C22.722 32.917 21.488 34 20 34c-1.657 0-3-1.343-3-3s1.343-3 3-3c.743 0 1.422.27 1.946.717.124-.226.225-.302.274-.12 4.576-1.73 7.834-6.192 7.834-11.424C30.054 10.439 24.657 4.98 18 4.98S5.946 10.44 5.946 17.173c0 2.852.969 5.476 2.591 7.553l1.385 1.175c.19.161.3.38.328.61l.173.145h-.167c-.006.203-.078.407-.218.575l-.684.825c-.334.403-.93.458-1.332.123l-.007-.006-1.429-1.212c-.102-.087-.182-.192-.237-.305h-.06C4.232 24.058 3 20.76 3 17.173 3 8.793 9.716 2 18 2zm.115 4.858c5.544 0 10.039 4.506 10.039 10.064s-4.495 10.063-10.039 10.063S8.077 22.48 8.077 16.922c0-5.558 4.494-10.064 10.038-10.064zm2.193 9.948h-4.616c.35 1.85 1.12 2.776 2.308 2.776 1.189 0 1.958-.925 2.308-2.776zm-6.577-4.164c-.829 0-1.5.673-1.5 1.504 0 .83.671 1.503 1.5 1.503.828 0 1.5-.673 1.5-1.503 0-.831-.672-1.504-1.5-1.504zm8.769 0c-.828 0-1.5.673-1.5 1.504 0 .83.672 1.503 1.5 1.503s1.5-.673 1.5-1.503c0-.831-.672-1.504-1.5-1.504z" transform="translate(0 44) translate(12 726) translate(25 51) translate(171) translate(11)"/>
                        </g>
                    </g>
                </g>
            </g>
        </g>
    </g>
</svg>
