<svg xmlns="http://www.w3.org/2000/svg" width="35" height="35" viewBox="0 0 35 35">
    <g fill="none" fill-rule="evenodd">
        <g>
            <g>
                <g>
                    <g transform="translate(-71 -918) translate(0 44) translate(12 864) translate(59 10)">
                        <rect width="35" height="35" fill="#FFF" rx="7"/>
                        <path fill="#1877F2" d="M28.042 0c3.608 0 6.577 2.728 6.959 6.234v22.574c-.354 3.254-2.939 5.839-6.193 6.193L20.528 35V23.1h4.513l.86-5.6h-5.374v-3.637c0-1.532.751-3.025 3.158-3.025h2.443V6.072s-2.217-.378-4.337-.378c-4.428 0-7.318 2.682-7.318 7.537v4.27H9.55v5.6h4.922V35H6.234C2.728 34.62 0 31.65 0 28.043V7c0-3.866 3.134-7 7-7h21.042z"/>
                    </g>
                </g>
            </g>
        </g>
    </g>
</svg>
