<svg xmlns="http://www.w3.org/2000/svg" width="28" height="28" viewBox="0 0 28 28">
    <g fill="none" fill-rule="evenodd" opacity=".7">
        <g fill="#4C4C4C">
            <g>
                <g>
                    <g>
                        <g>
                            <path d="M22.539 6.185C20.1 4.103 16.333 4.415 14 6.828c-2.333-2.413-6.1-2.73-8.539-.643-3.172 2.712-2.708 7.134-.447 9.477l7.4 7.657c.422.437.987.681 1.586.681.603 0 1.164-.24 1.586-.677l7.4-7.656c2.257-2.344 2.73-6.766-.447-9.482zM14.146 21.79c-.101.101-.185.101-.285 0l-7.346-7.56c-1.529-1.575-1.839-4.553.306-6.377 1.629-1.383 4.142-1.176 5.716.445l1.466 1.51 1.466-1.51c1.583-1.63 4.096-1.828 5.717-.449 2.14 1.824 1.822 4.819.305 6.38l-7.345 7.56z" transform="translate(-93 -3768) translate(0 44) translate(0 3722) translate(21 2) translate(62) translate(10)"/>
                        </g>
                    </g>
                </g>
            </g>
        </g>
    </g>
</svg>
