<svg xmlns="http://www.w3.org/2000/svg" width="28" height="28" viewBox="0 0 28 28">
    <g fill="none" fill-rule="evenodd" opacity=".7">
        <g fill="#4C4C4C">
            <g>
                <g>
                    <path d="M12.31 21.83c0 1.171-.92 2.16-2.035 2.16h-3.33c-1.153 0-2.056-.996-2.056-2.2v-6.847l-.845.726c-.375.322-.878.408-1.267.088l-.095-.088c-.343-.362-.408-1.087 0-1.437l2.49-2.135 1.362-1.169L7.896 9.76l5.4-4.632.037-.03.009-.008c.4-.422.955-.35 1.362 0l2.94 2.521 5.372 4.608-1.618-1.388V7.617c0-.514.379-.95.853-1.009l.111-.007c.525 0 .963.462.963 1.016v4.867l1.993 1.71c.408.349.343 1.074 0 1.436-.4.421-.955.349-1.362 0l-.657-.564v6.777c0 .787-.438 1.572-1.118 1.913-.635.318-1.367.234-2.051.234h-2.055c-.412 0-.832-.057-1.19-.293-.645-.425-1.007-1.125-1.007-1.926l-.001-4.257.005.028.004.026.001.015v-.015l-.005-.046-.004-.035-.002-.003.002.015-.001.011-.005-.027-.004-.011-.012-.02.01.011v-.005l-.003-.007-.012-.008.004.007-.01-.01.005.002-.007-.012v-.002l-.016-.006.015.014-.03-.02-.001-.001-.027-.009h-.085l-3.283-.001-.033.007-.012.003-.008.006-.009.005-.008.01-.011.014.007-.016-.003.002-.015.027-.004.004.007-.024h-.001l-.004.017-.005.013.003-.005-.002.006.01-.015.006-.008-.013.031-.01.023-.002.005zm-1.927 0v-4.122c0-.404.055-.785.222-1.155.323-.718 1.068-1.179 1.814-1.179h3.336c.698 0 1.368.382 1.739 1.008.29.49.31 1.017.31 1.572l-.001 3.89v-.015l-.003.013.001.026.003.005-.001-.025.007.033.002.008.005.011-.003-.004.002.008-.002-.004-.009-.012.004.011.005.015.006.004-.004-.013.013.019.004.002-.015-.025.023.029.005.005-.013-.009.006.009-.003-.001v.001l-.001-.001-.011-.005v.001l.014.007.01.014-.008-.013-.001-.002.012.005.004.004.027.014h-.012l.015.013.001.002c.062.01.144.014.028-.012l-.012-.004h3.365l.032-.006.011-.005.008-.005.011-.007.018-.019-.007.013.014-.009.002-.003v.002c.022-.011.02-.005.009.007l-.008.007.011-.004.013-.035.006-.021-.017.025-.001.007v-.006l-.012.016.002-.01.001-.002-.012.012.009-.014.005-.011.003-.012.004-.03.002-.019v-8.416l-2.657-2.28-2.686-2.303-2.005-1.72-2.09 1.792-5.118 4.389v8.558l-.004-.027-.004-.026.004.046.003.034.002.003-.001-.026.007.028.002.011-.008-.013v.013l.01.01h.001l-.002-.008.005.007.004.008-.007-.007.001.004.003.011.003.002-.003-.001.005.015.014.006-.007-.014-.008-.015.012.011.024.02.007.006.013.004c.019.004.038.006.056.008l3.337-.001-.01.004c-.095.028-.06.028-.013.022l.035-.007-.006.006.007-.006.03-.007c.016-.005.02-.01 0-.012h-.01l-.011.01.01-.01h-.015l-.021.012.017-.01.002-.002h.002l.034-.019-.019.019h.001l.014-.013.008-.008-.003.001.004-.003-.01.005-.01.004.04-.031.002-.003.007-.009.005-.013.006-.014.002-.015-.001.015.005-.007.002-.005v-.003l-.001-.022-.005.021.001-.028z" transform="translate(-21 -3768) translate(0 44) translate(0 3722) translate(21 2)"/>
                </g>
            </g>
        </g>
    </g>
</svg>
