<svg xmlns="http://www.w3.org/2000/svg" width="35" height="35" viewBox="0 0 35 35">
    <defs>
        <linearGradient id="b08usta70a" x1="50%" x2="22.778%" y1="0%" y2="100%">
            <stop offset="0%" stop-color="#7F2DB6"/>
            <stop offset="58.12%" stop-color="#DB2462"/>
            <stop offset="100%" stop-color="#FEBC49"/>
        </linearGradient>
    </defs>
    <g fill="none" fill-rule="evenodd">
        <g>
            <g>
                <g>
                    <g transform="translate(-136 -918) translate(0 44) translate(12 864) translate(124 10)">
                        <rect width="31" height="32" x="2" y="2" fill="#FFF" rx="7"/>
                        <path fill="url(#b08usta70a)" d="M31.145 27.817c-.61 1.53-1.788 2.71-3.327 3.327-2.303.914-7.769.703-10.314.703-2.546 0-8.02.203-10.315-.703-1.53-.61-2.71-1.789-3.326-3.327-.913-2.304-.703-7.771-.703-10.317 0-2.546-.203-8.02.703-10.317.61-1.53 1.788-2.71 3.326-3.327 2.304-.914 7.77-.703 10.315-.703s8.019-.203 10.314.703c1.53.61 2.71 1.789 3.327 3.327.913 2.304.702 7.771.702 10.317 0 2.546.211 8.02-.702 10.317m3.732-17.533c-.133-2.804-.773-5.288-2.827-7.334C30.005.904 27.522.264 24.72.123c-2.89-.164-11.549-.164-14.438 0-2.795.133-5.278.773-7.331 2.82C.896 4.988.264 7.472.123 10.275c-.164 2.89-.164 11.55 0 14.44.133 2.804.773 5.288 2.827 7.334 2.053 2.046 4.528 2.686 7.331 2.827 2.89.164 11.549.164 14.438 0 2.803-.133 5.286-.773 7.331-2.827 2.046-2.046 2.686-4.53 2.827-7.334.164-2.89.164-11.543 0-14.432m-5.942-2.125c0 1.164-.937 2.093-2.093 2.093-1.163 0-2.092-.937-2.092-2.093 0-1.155.937-2.093 2.092-2.093 1.156 0 2.093.938 2.093 2.093M17.504 23.334c-3.21 0-5.833-2.616-5.833-5.834 0-3.218 2.616-5.834 5.833-5.834s5.833 2.616 5.833 5.834c0 3.218-2.624 5.834-5.833 5.834m0-14.808c-4.966 0-8.972 4.007-8.972 8.974 0 4.967 4.006 8.974 8.972 8.974 4.966 0 8.971-4.007 8.971-8.974 0-4.967-4.005-8.974-8.971-8.974"/>
                    </g>
                </g>
            </g>
        </g>
    </g>
</svg>
