<svg xmlns="http://www.w3.org/2000/svg" width="35" height="35" viewBox="0 0 35 35">
    <g fill="none" fill-rule="evenodd">
        <g>
            <g>
                <g>
                    <g transform="translate(-202 -918) translate(0 44) translate(12 864) translate(190 10)">
                        <rect width="35" height="35" fill="#FFF" rx="7"/>
                        <path fill="#00B901" d="M28 0c3.866 0 7 3.134 7 7v21c0 3.866-3.134 7-7 7H7c-3.866 0-7-3.134-7-7V7c0-3.866 3.134-7 7-7h21zM17.445 5.617c-7.023 0-12.742 4.64-12.742 10.344 0 5.11 4.531 9.39 10.656 10.203 1.493.32 1.32.867.985 2.875-.055.32-.258 1.258 1.101.688 1.36-.57 7.336-4.32 10.016-7.399 1.844-2.031 2.727-4.086 2.727-6.367 0-5.703-5.72-10.344-12.743-10.344zm-.336 7.594c.079 0 .164.04.204.11l2.546 3.437V13.46c0-.14.11-.25.25-.25H21c.14-.008.258.11.258.242v5.555c0 .14-.11.25-.25.25h-.89c-.087 0-.165-.047-.204-.102l-2.547-3.437v3.297c0 .14-.11.25-.25.25h-.89c-.141 0-.25-.11-.25-.25V13.46c0-.14.109-.25.25-.25h.882zm8.836-.008c.133 0 .243.117.25.25v.89c0 .141-.11.25-.25.25h-2.43v.938h2.43c.14 0 .25.11.25.25v.899c0 .14-.11.25-.25.25h-2.43v.937h2.43c.14 0 .25.11.25.25v.89c0 .141-.11.25-.25.25h-3.57c-.14 0-.25-.116-.25-.25v-5.554c0-.14.117-.25.25-.25zm-11.093 0c.14 0 .25.117.25.25v5.555c0 .14-.11.25-.25.25h-.891c-.14 0-.25-.11-.25-.25v-5.555c0-.14.11-.25.25-.25zm-4.829 0c.141 0 .25.11.25.25v4.406h2.43c.133 0 .242.118.242.25V19c0 .14-.109.25-.25.25h-3.57c-.07 0-.125-.031-.172-.07-.047-.047-.07-.102-.07-.172v-5.555c0-.14.11-.25.25-.25z"/>
                    </g>
                </g>
            </g>
        </g>
    </g>
</svg>
