<svg xmlns="http://www.w3.org/2000/svg" width="28" height="28" viewBox="0 0 28 28">
    <g fill="none" fill-rule="evenodd">
        <g fill="#4C4C4C">
            <g>
                <g>
                    <g>
                        <g>
                            <path d="M14 15.35c3.265 0 5.914-2.721 5.914-6.075S17.265 3.2 14 3.2c-3.265 0-5.914 2.721-5.914 6.075S10.735 15.35 14 15.35zm3.923.978C16.571 16 15.934 15.94 14 15.94s-2.169-.021-3.68.316c-2.974.664-5.52 2.495-5.52 5.532v1.047c0 1.085.883 1.965 1.971 1.965H21.23c1.088 0 1.971-.88 1.971-1.965v-1.047c0-3.037-2.01-4.671-5.277-5.46z" transform="translate(-174 -3768) translate(0 44) translate(0 3722) translate(21 2) translate(143) translate(10)"/>
                        </g>
                    </g>
                </g>
            </g>
        </g>
    </g>
</svg>
