<svg xmlns="http://www.w3.org/2000/svg" width="28" height="28" viewBox="0 0 28 28">
    <g fill="none" fill-rule="evenodd">
        <g fill="#FFF">
            <g>
                <path d="M23.286 19.2c.394 0 .714.239.714.533v1.334c0 .294-.32.533-.714.533H4.714c-.394 0-.714-.239-.714-.533v-1.334c0-.294.32-.533.714-.533zm0-6.4c.394 0 .714.239.714.533v1.334c0 .294-.32.533-.714.533H4.714c-.394 0-.714-.239-.714-.533v-1.334c0-.294.32-.533.714-.533zm0-6.4c.394 0 .714.239.714.533v1.334c0 .294-.32.533-.714.533H4.714C4.32 8.8 4 8.561 4 8.267V6.933c0-.294.32-.533.714-.533z" transform="translate(-12 -55) translate(0 44) translate(12 11)"/>
            </g>
        </g>
    </g>
</svg>
