<svg xmlns="http://www.w3.org/2000/svg" width="28" height="28" viewBox="0 0 28 28">
    <g fill="none" fill-rule="evenodd" opacity=".7">
        <g fill="#4C4C4C">
            <g>
                <g>
                    <g>
                        <path d="M5.225 21.17v-9.478c.967.932 2.338 2.24 4.427 4.22.922.879 2.537 2.818 4.348 2.806 1.802.012 3.396-1.9 4.348-2.805 2.089-1.98 3.46-3.289 4.427-4.22v9.476H5.225zm17.55-13.54v2.015c-.946.901-2.454 2.303-5.678 5.256-.71.654-2.118 2.225-3.097 2.207-.98.018-2.387-1.553-3.097-2.207-3.224-2.953-4.732-4.355-5.678-5.256V7.63h17.55zm0-2.03H5.225C4.107 5.6 3.2 6.585 3.2 7.8V21c0 1.215.907 2.2 2.025 2.2h17.55c1.118 0 2.025-.985 2.025-2.2V7.8c0-1.215-.907-2.2-2.025-2.2z" transform="translate(-254 -3768) translate(0 44) translate(0 3722) translate(21 2) translate(233)"/>
                    </g>
                </g>
            </g>
        </g>
    </g>
</svg>
