<svg xmlns="http://www.w3.org/2000/svg" width="35" height="35" viewBox="0 0 35 35">
    <defs>
        <linearGradient id="k9r9r0o4ca" x1="50%" x2="50%" y1="0%" y2="100%">
            <stop offset="0%" stop-color="#3DCC94"/>
            <stop offset="100%" stop-color="#11A97B"/>
        </linearGradient>
    </defs>
    <g fill="none" fill-rule="evenodd">
        <g fill="url(#k9r9r0o4ca)" transform="translate(-133 -821)">
            <g>
                <g>
                    <g>
                        <g>
                            <path d="M17.822 27.905H5.347C4.05 27.905 3 26.854 3 25.558V8.347C3 7.05 4.05 6 5.347 6H28.76c1.298 0 2.347 1.051 2.347 2.347v6.46c-1.64-1.476-3.802-2.372-6.17-2.372-5.134 0-9.295 4.214-9.295 9.412 0 2.307.82 4.42 2.181 6.058zM11.277 9.814c0-.226-.263-.41-.585-.41H7.178c-.322 0-.585.184-.585.41v1.369c0 .226.263.41.585.41h3.514c.322 0 .585-.184.585-.41v-1.37zm9.369 0c0-.226-.263-.41-.586-.41h-6.636c-.322 0-.585.184-.585.41v1.369c0 .226.263.41.585.41h6.636c.323 0 .586-.184.586-.41v-1.37zM24.936 29c-3.901 0-7.064-3.203-7.064-7.153 0-3.95 3.163-7.154 7.064-7.154 3.901 0 7.064 3.203 7.064 7.154C32 25.797 28.837 29 24.936 29zm4.38-5.997l-.806-.477c.081-.45.081-.912 0-1.362l.806-.478c.093-.054.135-.167.105-.271-.21-.691-.569-1.316-1.036-1.836-.072-.08-.19-.099-.28-.045l-.807.478c-.339-.299-.73-.53-1.151-.681v-.953c0-.109-.074-.204-.178-.227-.695-.16-1.407-.151-2.068 0-.104.023-.178.118-.178.227v.955c-.42.153-.81.384-1.151.68l-.805-.477c-.093-.054-.208-.036-.28.045-.468.518-.826 1.143-1.036 1.836-.032.104.011.217.104.271l.807.478c-.082.45-.082.912 0 1.362l-.807.477c-.093.054-.134.167-.104.272.21.69.568 1.315 1.036 1.835.072.08.19.1.28.045l.807-.477c.339.299.729.53 1.15.68v.955c0 .11.075.204.179.227.695.16 1.407.152 2.068 0 .104-.023.178-.118.178-.227v-.954c.42-.154.81-.384 1.15-.681l.807.477c.093.054.209.037.28-.045.468-.518.826-1.142 1.036-1.835.029-.107-.013-.22-.106-.274zm-4.38.274c-.779 0-1.413-.7-1.413-1.56 0-.86.634-1.561 1.413-1.561s1.413.7 1.413 1.56c0 .861-.634 1.561-1.413 1.561z" transform="translate(0 44) translate(12 726) translate(25 51) translate(85) translate(11)"/>
                        </g>
                    </g>
                </g>
            </g>
        </g>
    </g>
</svg>
