<svg xmlns="http://www.w3.org/2000/svg" width="35" height="35" viewBox="0 0 35 35">
    <defs>
        <linearGradient id="maii5mj53a" x1="50%" x2="50%" y1="0%" y2="100%">
            <stop offset="0%" stop-color="#F5AF19"/>
            <stop offset="100%" stop-color="#F94F27"/>
        </linearGradient>
    </defs>
    <g fill="none" fill-rule="evenodd">
        <g fill="url(#maii5mj53a)" transform="translate(-41 -337)">
            <g>
                <g>
                    <g>
                        <g>
                            <path d="M17 3c2.022 0 3.667 1.645 3.667 3.667h4.583c1.519 0 2.75 1.23 2.75 2.75l.001 7.871C26.696 16.472 25.153 16 23.5 16c-4.694 0-8.5 3.806-8.5 8.5 0 3.523 2.143 6.545 5.196 7.834H8.75c-1.519 0-2.75-1.232-2.75-2.75V9.416c0-1.52 1.231-2.75 2.75-2.75h4.583C13.333 4.645 14.978 3 17 3zm6.5 15c3.59 0 6.5 2.91 6.5 6.5S27.09 31 23.5 31 17 28.09 17 24.5s2.91-6.5 6.5-6.5zm-.5 2c-.513 0-.936.386-.993.883L22 21v4.687c0 .148.103.272.24.305l.073.008H26c.552 0 1-.448 1-1 0-.513-.386-.936-.883-.993L26 24h-2v-3c0-.552-.448-1-1-1zm-.844-9.667H11.844c-.19 0-.344.154-.344.344v1.146c0 .19.154.344.344.344h10.312c.19 0 .344-.154.344-.344v-1.146c0-.19-.154-.344-.344-.344zM17 5.292c-.76 0-1.375.615-1.375 1.375S16.241 8.042 17 8.042c.76 0 1.375-.616 1.375-1.375 0-.76-.616-1.375-1.375-1.375z" transform="translate(0 44) translate(12 242) translate(16 51) translate(13)"/>
                        </g>
                    </g>
                </g>
            </g>
        </g>
    </g>
</svg>
