<svg xmlns="http://www.w3.org/2000/svg" width="28" height="28" viewBox="0 0 28 28">
    <g fill="none" fill-rule="evenodd" opacity=".7">
        <g fill="#4C4C4C">
            <g>
                <g>
                    <g>
                        <path d="M12.16 5.985c3.376 0 6.114 2.737 6.114 6.114 0 3.376-2.738 6.113-6.115 6.113-3.377 0-6.114-2.737-6.114-6.113 0-3.377 2.737-6.114 6.114-6.114m11.569 15.306l-3.895-3.894c-.176-.176-.414-.273-.664-.273h-.637c1.079-1.379 1.72-3.113 1.72-5C20.251 7.636 16.613 4 12.125 4h-.002-.002C7.637 4 4 7.636 4 12.121v.003c0 4.488 3.637 8.124 8.126 8.124 1.886 0 3.62-.64 5-1.718v.636c0 .25.098.489.273.664l3.895 3.895c.367.367.961.367 1.325 0l1.105-1.106c.367-.367.367-.96.004-1.328" transform="translate(-325 -3768) translate(0 44) translate(0 3722) translate(21 2) translate(304)"/>
                    </g>
                </g>
            </g>
        </g>
    </g>
</svg>
