<svg xmlns="http://www.w3.org/2000/svg" width="35" height="35" viewBox="0 0 35 35">
    <defs>
        <linearGradient id="z9ere0rlha" x1="50%" x2="50%" y1="0%" y2="100%">
            <stop offset="0%" stop-color="#FF6161"/>
            <stop offset="100%" stop-color="#EF1D62"/>
        </linearGradient>
    </defs>
    <g fill="none" fill-rule="evenodd">
        <g fill="url(#z9ere0rlha)" transform="translate(-293 -821)">
            <g>
                <g>
                    <g>
                        <path d="M30.655 20.744l-2.422-1.339c.244-1.263.244-2.558 0-3.821l2.422-1.34c.279-.152.404-.467.313-.761-.631-1.938-1.706-3.691-3.11-5.15-.217-.223-.57-.278-.842-.125l-2.423 1.339c-1.017-.838-2.189-1.486-3.457-1.91V4.963c0-.305-.222-.572-.534-.637-2.087-.447-4.225-.425-6.21 0-.313.065-.534.332-.534.637v2.678c-1.263.43-2.434 1.078-3.458 1.91L7.984 8.213c-.279-.152-.626-.103-.842.126-1.404 1.453-2.48 3.206-3.11 5.15-.097.293.034.609.312.761l2.423 1.34c-.245 1.262-.245 2.558 0 3.82l-2.423 1.34c-.278.152-.403.468-.312.762.63 1.938 1.706 3.69 3.11 5.15.216.223.569.277.842.125l2.422-1.34c1.018.839 2.19 1.487 3.457 1.911v2.678c0 .305.222.572.535.637 2.087.447 4.225.425 6.21 0 .312-.065.534-.332.534-.637v-2.678c1.262-.43 2.434-1.078 3.457-1.91l2.423 1.339c.278.152.625.103.841-.126 1.405-1.453 2.48-3.206 3.11-5.15.086-.299-.04-.614-.318-.767zM17.5 22c-2.48 0-4.5-2.02-4.5-4.5s2.02-4.5 4.5-4.5 4.5 2.02 4.5 4.5-2.02 4.5-4.5 4.5z" transform="translate(0 44) translate(12 726) translate(25 51) translate(256)"/>
                    </g>
                </g>
            </g>
        </g>
    </g>
</svg>
