<svg xmlns="http://www.w3.org/2000/svg" width="35" height="35" viewBox="0 0 35 35">
    <g fill="none" fill-rule="evenodd">
        <g fill="#666AD1">
            <g>
                <g>
                    <path d="M24.167 21.438c-1.178 0-2.26.41-3.114 1.095l-5.338-3.357c.158-.72.158-1.465 0-2.185l5.338-3.357c.854.685 1.936 1.095 3.114 1.095 2.761 0 5-2.252 5-5.031s-2.239-5.031-5-5.031c-2.762 0-5 2.252-5 5.03 0 .376.04.741.118 1.093l-5.338 3.357c-.854-.685-1.936-1.095-3.114-1.095-2.761 0-5 2.253-5 5.031 0 2.779 2.239 5.032 5 5.032 1.178 0 2.26-.41 3.114-1.095l5.338 3.356c-.079.36-.118.725-.118 1.093 0 2.778 2.238 5.031 5 5.031 2.761 0 5-2.253 5-5.031 0-2.779-2.239-5.032-5-5.032z" transform="translate(-267 -918) translate(0 44) translate(12 864) translate(255 10)"/>
                </g>
            </g>
        </g>
    </g>
</svg>
