<svg xmlns="http://www.w3.org/2000/svg" width="35" height="35" viewBox="0 0 35 35">
    <defs>
        <linearGradient id="mwk9hpgiea" x1="50%" x2="50%" y1=".063%" y2="100%">
            <stop offset=".021%" stop-color="#66C7FF"/>
            <stop offset="100%" stop-color="#4A9BFF"/>
        </linearGradient>
    </defs>
    <g fill="none" fill-rule="evenodd">
        <g fill="url(#mwk9hpgiea)" transform="translate(-121 -338)">
            <g>
                <g>
                    <g>
                        <g>
                            <g>
                                <path d="M2 18c-.552 0-1-.448-1-1s.448-1 1-1h1.91v-.005L4 16h9c.552 0 1-.448 1-1 0-.513-.386-.936-.883-.993L13 14H4c-.03 0-.06.001-.09.004C3.4 13.95 3 13.522 3 13c0-.552.448-1 1-1l-.09.005V12H11c.513 0 .936-.386.993-.883L12 11c0-.513-.386-.936-.883-.993L11 10H2c-.552 0-1-.448-1-1s.448-1 1-1h1.91v-.563c0-1.291 1.01-2.35 2.316-2.432L6.39 5h13.4c1.329 0 2.417 1.006 2.502 2.277l.006.16v2.438h2.303c.597 0 1.173.21 1.625.585l.146.131 5.219 5.073c.423.411.681.954.728 1.529l.008.193v5.489c1.045.229 1.6.48 1.665.757l.007.055v1.625c0 .413-.32.756-.731.807l-.105.006h-2.507c0 2.691-2.247 4.875-5.015 4.875-2.696 0-4.897-2.07-5.01-4.664l-.005-.211H13.94c0 2.691-2.246 4.875-5.015 4.875-2.695 0-4.896-2.07-5.01-4.664l-.005-.211V20H11c.513 0 .936-.386.993-.883L12 19c0-.513-.386-.936-.883-.993L11 18zm6.925 5.688c-1.384 0-2.507 1.091-2.507 2.437 0 1.346 1.123 2.438 2.507 2.438 1.385 0 2.508-1.092 2.508-2.438s-1.123-2.438-2.508-2.438zm16.717 0c-1.385 0-2.508 1.091-2.508 2.437 0 1.346 1.123 2.438 2.508 2.438 1.384 0 2.507-1.092 2.507-2.438s-1.123-2.438-2.507-2.438zm-1.04-11.375H22.3V18h7.522v-.614l-5.219-5.073z" transform="translate(0 44) translate(12 242) translate(16 51) translate(75 1) translate(18)"/>
                            </g>
                        </g>
                    </g>
                </g>
            </g>
        </g>
    </g>
</svg>
