<svg xmlns="http://www.w3.org/2000/svg" width="35" height="35" viewBox="0 0 35 35">
    <defs>
        <linearGradient id="gxo6ifrp0a" x1="50%" x2="50%" y1="0%" y2="100%">
            <stop offset="0%" stop-color="#977DF0"/>
            <stop offset="100%" stop-color="#7461F0"/>
        </linearGradient>
    </defs>
    <g fill="none" fill-rule="evenodd">
        <g fill="url(#gxo6ifrp0a)" transform="translate(-48 -821)">
            <g>
                <g>
                    <g>
                        <path d="M17.009 31.163H5.386C4.069 31.163 3 30.103 3 28.796v-1.263c0-3.66 3.081-5.867 6.68-6.667 1.83-.406 2.113-.381 4.454-.381 2.34 0 3.11.074 4.748.468 1.278.307 1.865.721 2.795 1.265l-4.675 5.206.007 3.74zm-2.875-12.48c-3.952 0-7.158-3.288-7.158-7.341C6.976 7.288 10.182 4 14.134 4c3.951 0 7.157 3.288 7.157 7.342 0 4.053-3.206 7.341-7.157 7.341zm4.826 9.513l6.398-6.66 3.326 3.465-6.397 6.665-2.826.329c-.468.058-.867-.358-.816-.851l.315-2.948zm12.716-7.946c.432.455.432 1.184 0 1.639l-1.939 2.02-3.33-3.465 1.943-2.025c.432-.45 1.137-.45 1.568 0l1.758 1.831z" transform="translate(0 44) translate(12 726) translate(25 51) translate(11)"/>
                    </g>
                </g>
            </g>
        </g>
    </g>
</svg>
